<?xml version="1.0" encoding="UTF-8"?>
<!DOCTYPE svg PUBLIC "-//W3C//DTD SVG 1.1//EN" "http://www.w3.org/Graphics/SVG/1.1/DTD/svg11.dtd">
<!-- Creator: CorelDRAW -->
<svg xmlns="http://www.w3.org/2000/svg" xml:space="preserve" width="518.214mm" height="389.072mm" version="1.1" style="shape-rendering:geometricPrecision; text-rendering:geometricPrecision; image-rendering:optimizeQuality; fill-rule:evenodd; clip-rule:evenodd"
viewBox="0 0 11537.83 8662.53"
 xmlns:xlink="http://www.w3.org/1999/xlink"
 xmlns:xodm="http://www.corel.com/coreldraw/odm/2003">
 <defs>
  <style type="text/css">
   <![CDATA[
    .fil0 {fill:white}
   ]]>
  </style>
 </defs>
 <g id="Camada_x0020_1">
  <metadata id="CorelCorpID_0Corel-Layer"/>
  <path class="fil0" d="M5394.81 1887.58c176.56,-243.55 373.76,-439.08 578.71,-625.79 207.46,-188.88 425.74,-359.48 655.62,-509.85 221.38,35.05 424.6,147.58 570.39,318.81 167.33,196.53 241.04,444.37 207.59,697.84 -34.26,258.86 -166.77,500.71 -393.93,718.75 -60.23,57.76 -132.02,112.66 -213.51,163 -8.86,5.49 -18.48,11.38 -28.77,17.74 -173.06,106.01 -533.13,326.72 -762.59,690.28 -55.94,88.6 -100.65,180.56 -134.04,275.17 -128.18,-11.85 -252.27,26.47 -334.41,73.75 -17.71,10.18 -34.02,21.04 -49.1,32.39 -12.05,-42.14 -27.7,-85.76 -47.88,-130.74 -30.4,-67.89 -44.31,-144.63 -40.15,-221.88 10.95,-203.95 -4.3,-517.25 -139.07,-851.58 -169.29,-419.74 -477.14,-748.48 -915.05,-977.14 -1.1,-0.56 -2.13,-1.13 -3.23,-1.63 -12.05,-5.73 -299.08,-140.1 -705.19,-195.01 -239.55,-32.42 -471.11,-30.26 -688.39,6.26 -273.61,46.08 -524.67,147.13 -746.25,300.25 -471.01,325.54 -759.07,868.33 -770.59,1452.04 -6.29,320.86 58.69,633.88 193.27,930.5 120.16,264.98 297.78,500.2 527.88,699.2 228.79,197.76 581.34,454.96 961.59,557.3 86.66,23.31 155.05,90.16 182.81,178.7 91.76,292.39 271.48,727.43 606.78,1139.75 434.22,533.97 997.88,867.6 1675.31,991.72 20.7,4 348.12,65.72 803.61,54.66 235.31,-5.71 530.19,-32.44 838.73,-109.1l208.54 -59.2c184.6,-59.28 370.37,-138.2 547.8,-242.71 487.65,-287.33 786.96,-663.02 889.41,-1116.68 67.76,-300.01 48.11,-624.79 -58.5,-965.32 -98.11,-313.43 -232.82,-517.79 -247.91,-540.07 -35.92,-53.13 -61.26,-106.17 -78.91,-155.51 64.66,40.35 142.57,59.94 232.52,58.5 133.88,-2.09 255.44,-69.14 342.2,-188.77 134.61,-185.58 169.13,-475.2 87.99,-737.99l-0.06 0.03c-58.63,-189.78 -168.83,-360.44 -310.26,-480.59 -138.83,-117.89 -294.68,-178.99 -439.15,-172.13 -96.02,4.56 -182.49,40.02 -249.87,102.51 -49.07,45.44 -87.13,103.68 -113.86,173.73 -98.92,-62.8 -216.85,-121.16 -351.02,-158.48 -52.8,-21.54 -358.4,-132.51 -781.97,-5.26 -287.06,86.1 -502.64,328.95 -591.53,666.15 -15.18,57.69 -23.24,118.55 -24.27,182.11 -69.46,-109.5 -146.83,-188.21 -231.53,-235.05 28.37,-78.71 65.92,-155.19 112.8,-229.43 206.08,-326.48 540.92,-531.64 701.8,-630.32 10.52,-6.39 20.34,-12.45 29.4,-18.05 92.72,-57.36 175.15,-120.38 244.87,-187.34 258.73,-248.41 410.15,-527.58 450.17,-829.81 40.55,-306.94 -48.48,-606.85 -250.87,-844.43 -131.43,-154.35 -301.65,-268.91 -490.69,-334.23 314.16,-181.73 649.04,-326.87 1006.4,-430.8 503.67,-146.56 1016.5,-198.87 1542.54,-121.06 560.04,83.4 1051.98,304.91 1455.44,697.87 294.55,286.89 480.66,643.41 590.3,1044.13 88.63,323.62 101.98,650.06 84.33,979.77 -10.09,150.66 -30.59,299.88 -61.6,447.67 -130.71,663.91 -376.51,1285.51 -700.23,1875.9 -229.87,418.47 -500.44,811.31 -836.81,1152.9 -231.16,234.62 -463.52,468.74 -707.67,689.41 -306.8,277.27 -647.23,511.76 -998.48,729.94 -558.1,346.62 -1143.84,635.45 -1764.51,852.29 -119.16,41.72 -241.41,77.57 -362.33,115.46 -78.78,24.67 -150.63,17.38 -228.9,-19.68 -606.61,-286.66 -1208.93,-581.91 -1778.82,-936.52 -390.57,-242.81 -773.48,-498.21 -1148.73,-766.16 -471.84,-337.77 -914.49,-712.62 -1314.38,-1134.92 -580.15,-613.5 -1064.37,-1292.53 -1369.64,-2086.22 -175.03,-455.26 -280,-927.93 -255.47,-1418.85 30.86,-617.8 217.94,-1177.8 672.51,-1619.98 323.71,-314.69 714.88,-504.97 1156.72,-601.02 439.78,-95.32 877.19,-81.6 1310.65,15.99 121.12,27.2 240.31,61.05 357.61,101.61 117.29,40.55 231.95,87.53 343.98,140.97 112.04,53.4 220.74,112.9 326.09,178.52 105.37,65.58 206.72,136.91 304.07,213.84 345.56,270.98 625.46,595.77 827.42,986.47 14.51,28.13 26.3,57.57 40.25,86.02 13.95,28.47 28.36,54.34 51.97,99.39zm56.35 5212.63c-2.75,3.32 -5.58,6.61 -8.49,9.87 -11.39,11.89 -23.7,19.31 -37.02,22.24 -13.32,2.93 -26.44,1.14 -39.29,-5.32 -11.45,-5.6 -20.61,-14.85 -27.43,-27.7 -6.87,-12.79 -7.59,-27.37 -2.26,-43.69 15.45,-50.07 37.72,-106.14 66.85,-168.2 7.46,-16.98 15.75,-33.53 24.91,-49.67 9.22,-16.05 18.18,-32 26.9,-47.81 4,-7.45 8.19,-14.92 12.65,-22.37 4.43,-7.53 8.69,-15.05 12.78,-22.51 2.3,-4.16 4.33,-8.72 6.13,-13.71 1.86,-5.06 3.06,-10.79 3.6,-17.18l1.06 -18.51 -20.91 14.92c-2.23,1.8 -4.46,3.56 -6.66,5.33 -2.12,1.8 -4.26,3.6 -6.39,5.46 -8.45,7.45 -16.78,14.88 -25.03,22.24 -8.19,7.29 -16.38,14.65 -24.64,22.11 -14.32,12.72 -28.47,25.5 -42.48,38.35 -13.95,12.89 -28.2,25.37 -42.75,37.43l-2.13 2.26c-8.09,7.09 -16.35,14.18 -24.77,21.31 -8.45,7.1 -17.31,13.59 -26.64,19.45 -25.57,14.92 -49.54,16.81 -71.91,5.72 -21.84,-10.65 -34.59,-30.33 -38.22,-58.99 -2.34,-15.71 -3.16,-31.56 -2.53,-47.54 0.6,-16.05 1.67,-32.09 3.19,-48.08 1.14,-17.48 2.53,-35.15 4.13,-53.01 1.67,-17.84 3.47,-35.62 5.33,-53.4 1.06,-8.42 1.89,-17.11 2.52,-26.11 0.7,-8.96 1.73,-17.87 3.07,-26.77 0.33,-4.06 0.27,-8.69 -0.26,-13.86 -0.47,-5.13 -1.67,-10.92 -3.6,-17.31l-5.46 -14.78 -19.05 24.76c-3.03,4.46 -6.23,8.93 -9.59,13.45 -3.39,4.53 -6.59,8.93 -9.59,13.19 -11.55,16.62 -23.01,33.13 -34.36,49.54 -11.38,16.45 -22.83,32.96 -34.35,49.55 -15.81,23.37 -31.7,46.54 -47.68,69.51 -15.98,23.01 -32.09,46.05 -48.34,69.11 -4.99,8.09 -10.32,15.85 -15.98,23.31 -5.6,7.52 -11.66,14.42 -18.11,20.64 -11.56,12.25 -24.97,19.62 -40.22,22.11 -15.28,2.57 -29.53,-0.07 -42.75,-7.85 -13.68,-8.19 -22.91,-19.78 -27.7,-34.76 -4.73,-14.98 -4.2,-29.9 1.59,-44.75 12.05,-30.89 26.51,-57.16 43.28,-78.84 72.87,-93.49 148.95,-187.64 228.26,-282.46 18.01,-22.11 39.69,-41.32 64.99,-57.66 22.9,-14.02 44.74,-17.44 65.52,-10.25 3,1.16 5.92,2.49 8.79,3.99 15.34,8.46 26.4,22.35 33.16,41.68 10.65,31.26 17.87,71.48 21.71,120.66 1.32,15.28 1.85,30.87 1.59,46.75 -0.2,15.81 -0.23,31.89 -0.13,48.21 -0.54,7.45 -0.9,14.98 -1.07,22.51 -0.2,7.45 -0.33,15.11 -0.39,22.9l0 18.11 14.38 -11.19c5.33,-4.26 10.55,-8.58 15.72,-13.04 5.12,-4.43 10.42,-8.79 15.85,-13.05 11.52,-10.02 22.8,-19.51 33.82,-28.5 10.99,-9.06 22.25,-18.05 33.7,-27.04 25.57,-19.08 53.87,-37.69 84.96,-55.8 15.25,-9.06 32.37,-15.91 51.27,-20.64 32.76,-8 59.46,-3.34 80.17,13.98 20.68,17.42 29.57,43.16 26.64,77.25 -4.46,58.53 -22.11,124.32 -53,197.36l-19.31 44.75c-11.98,29.63 -24.57,59.73 -37.69,90.29 -10.64,24.99 -21.5,49.48 -32.55,73.52 21.53,-33.34 45.44,-68.79 71.75,-106.38 28.77,-41.18 63.43,-86.86 104.02,-137.03 11.52,-14.28 24.13,-29.16 37.82,-44.61 13.76,-15.51 28.3,-30.43 43.68,-44.75 15.78,-14.28 36.53,-25.2 62.2,-32.76 19.44,-6.39 36.89,-7.75 52.34,-4.13 27.33,6.39 46.48,26.96 57.4,61.66 21.31,69.18 41.22,140.63 59.8,214.41 14.92,59.3 25.17,119.85 30.81,181.66 12.68,-99.95 27.01,-201.51 42.98,-304.71 4.06,-28.3 12.72,-55.93 25.98,-82.84 12.41,-23.87 29.36,-38.09 50.87,-42.62 3.19,-0.6 6.39,-1 9.59,-1.2 17.48,-0.69 34.16,5.53 50.07,18.65 25.11,21.14 52.01,51.87 80.7,92.15 8.96,12.35 17.45,25.4 25.44,39.15 7.99,13.79 16.24,27.63 24.77,41.55 3.46,6.76 7,13.39 10.66,19.84 3.72,6.39 7.58,12.98 11.58,19.71l9.46 15.45 6.39 -16.91c2.4,-6.39 4.66,-12.78 6.79,-19.17 2.13,-6.46 4.33,-12.96 6.66,-19.45 4.69,-14.45 9.46,-28.4 14.25,-41.82 4.8,-13.48 9.79,-26.96 15.06,-40.48 11.98,-29.63 26.66,-60.2 44.08,-91.62 8.42,-15.72 19.51,-30.43 33.29,-44.22 23.87,-23.77 49.15,-33.59 75.78,-29.42 21.23,3.38 38.78,15.15 52.62,35.25 1.92,-4.23 4.57,-8.24 7.93,-12.01 6.13,-6.92 13.82,-11.71 23.04,-14.38 6.49,-1.94 13.45,-2.47 20.91,-1.6 7.46,0.8 14.98,3.6 22.51,8.39 15.45,9.32 30.36,19.91 44.74,31.7 14.32,11.72 28.37,23.27 42.22,34.62l2.4 2.53c11.88,10.22 23.7,20.64 35.42,31.3 11.78,10.65 23.84,21.57 36.09,32.76 5.75,4.89 11.48,9.95 17.18,15.18 5.76,5.17 11.65,10.45 17.71,15.85l9.19 8.92 22.5 -58.19c6.83,-17.58 13.52,-34.8 20.11,-51.67 6.56,-16.85 13.19,-33.73 19.85,-50.61 1.13,-3.63 2.3,-7.13 3.46,-10.52 1.14,-3.46 2.3,-7.06 3.47,-10.79 2.03,-6.02 4.13,-11.88 6.26,-17.58 2.13,-5.66 4.59,-11.08 7.45,-16.25 7.89,-16.14 18.68,-27.63 32.37,-34.49 5.09,-2.56 10.19,-4.32 15.34,-5.3 2.7,-7.65 5.49,-15.46 8.41,-23.42 4.53,-12.32 10.79,-22.17 18.77,-29.56 46.71,-42.95 95.06,-79 145.03,-108.14 2.5,-1.93 5.39,-3.76 8.66,-5.46 62.06,-33.19 120.96,-29.23 176.72,11.86 50.34,36.76 67.05,85.46 50.21,146.09 -0.9,2.76 -1.99,5.73 -3.33,8.93 -1.33,3.13 -2.93,6.36 -4.8,9.72 -0.9,1.7 -1.73,3.53 -2.52,5.46 -0.73,1.86 -1.54,3.69 -2.4,5.46l-5.06 10.66 11.32 1.19c4.16,0.8 7.99,1.47 11.45,2 3.53,0.47 7,1.03 10.39,1.73 6.73,1.16 12.85,2.23 18.38,3.19 5.59,0.9 11.11,1.99 16.64,3.33 19.26,4.06 36.89,10.36 52.93,18.92 -12.19,-17.64 -22.13,-36.26 -29.83,-55.85 -48.01,-122.79 -31.17,-229.65 50.61,-320.68l5.59 -6.92c2.86,-3.1 5.73,-6.26 8.66,-9.46 2.87,-3.2 5.86,-6.16 9.06,-8.93 3.56,-2.99 7.13,-5.36 10.65,-7.06 32.5,-16.58 64.16,-29.73 94.96,-39.42 30.73,-9.65 60.92,-13.85 90.69,-12.51 29.73,1.33 59.6,9.55 89.63,24.63 10.69,5.39 21.45,11.86 32.27,19.39 -65.43,-102.91 -70.45,-205.58 -15.06,-307.95l3.86 -7.99c2.07,-3.63 4.13,-7.32 6.26,-11.05 2.07,-3.8 4.33,-7.46 6.79,-10.93 2.76,-3.79 5.66,-6.92 8.65,-9.32 27.7,-23.77 55.4,-43.95 83.1,-60.46 27.71,-16.58 56.17,-27.71 85.37,-33.3 29.23,-5.66 60.2,-4.66 92.96,3.06 32.76,7.72 67.85,23.57 105.34,47.55 53.71,46.71 87.43,96.25 101.21,148.62 1.94,10.05 4.17,19.84 6.66,29.43 2.47,9.59 4.73,19.4 6.79,29.43l5.86 22.9c18.28,75.91 -0.77,144.19 -57.13,204.83 -3.92,4.46 -7.98,8.72 -12.25,12.78 -4.26,4.09 -8.52,8.19 -12.78,12.25l-2.53 2.13c-57.63,52.47 -122.68,74.58 -195.23,66.32 -40.12,-4.16 -78.91,-17.34 -116.4,-39.55 -6.83,-4.06 -13.44,-8.31 -19.8,-12.74 26.55,45.74 40.33,90.28 41.33,133.63 -0.47,10.12 -0.6,20.17 -0.39,30.1 0.16,9.95 0.06,19.98 -0.27,30.09l0.4 23.71c0,78.14 -34.46,140.1 -103.35,185.91 -4.8,3.46 -9.79,6.73 -14.92,9.72 -5.06,2.93 -10.19,5.86 -15.32,8.79l-2.79 1.46c-68.19,37.56 -136.71,43.91 -205.49,19.04 -23.87,-8.39 -46.4,-20.13 -67.6,-35.2 20.42,38.39 25.8,79.83 16.12,124.33 -4.09,21.5 -10.38,38.35 -18.9,50.6 -65.72,100.68 -148.19,159.25 -247.44,175.66 -20.61,3.2 -43.78,2.06 -69.51,-3.46 -22.11,-4.32 -36.22,-19.58 -42.35,-45.67 -4.16,-16.95 -10.42,-33.73 -18.77,-50.35 -14.98,-29.1 -29.9,-58.13 -44.75,-87.09 -14.92,-29.03 -29.77,-57.86 -44.61,-86.56 -11.79,-23.17 -23.75,-46.38 -35.83,-69.65 -8.87,-17.1 -17.67,-34.18 -26.41,-51.26 -11.14,35.7 -22.88,70.53 -35.16,104.48 -14.65,40.58 -28.47,78.27 -41.42,113.06 -7.98,21.24 -7.58,41.82 1.2,61.79 24.5,57.9 44.81,112.1 61,162.61 7.72,23.64 8.16,44.48 1.32,62.59 -6.75,18.05 -19.24,30.04 -37.42,35.96 -15.55,5.25 -31.17,3.86 -46.88,-4.14 -19.71,-10.71 -33.63,-29.56 -41.68,-56.46 -4.46,-14.72 -8.46,-29.83 -11.99,-45.28 -3.46,-15.51 -6.62,-30.89 -9.46,-46.08 -2.39,-9.85 -4.53,-19.74 -6.39,-29.69 -1.86,-9.92 -3.97,-19.78 -6.26,-29.56 -1.69,-5.5 -4.63,-11.09 -8.79,-16.79 -4.19,-5.66 -9.29,-9.25 -15.32,-10.78 -54.7,-16.78 -103.74,-48.81 -147.15,-96.15 -13.23,-14.29 -25.87,-29.17 -37.96,-44.62 -12.06,-15.51 -23.97,-30.93 -35.69,-46.21l-2.38 -2.93c9.55,33.03 17.15,69.41 22.8,109.13l6.66 48.08c4.96,31.7 9.72,64.02 14.25,96.95 4.53,32.96 8.52,65.48 11.98,97.61 2.57,28.07 1.07,57.07 -4.52,86.96 -3.67,15.98 -10.46,28.7 -20.38,38.09 -9.95,9.33 -22.11,14.58 -36.49,15.72 -12.62,1.06 -25.17,-2.13 -37.69,-9.59 -12.51,-7.46 -20.71,-19.58 -24.5,-36.36 -12.62,-50.88 -22.43,-110.34 -29.43,-178.46 -2.39,-18.45 -3.83,-36.96 -4.26,-55.54 -0.47,-18.54 -1.07,-36.82 -1.87,-54.87 -0.26,-8.42 -0.47,-16.98 -0.53,-25.7 -0.1,-8.79 -0.33,-17.35 -0.66,-25.7 -0.2,-4.8 -0.8,-9.79 -1.86,-15.05 -1,-5.23 -2.93,-10.72 -5.86,-16.52l-8.39 -16.38 -10.25 23.57c-1,2.67 -1.97,5.33 -2.93,7.99 -0.9,2.67 -1.8,5.39 -2.66,8.12 -3.3,10.65 -6.62,21.23 -9.99,31.7 -3.3,10.49 -6.52,21.04 -9.72,31.69 -5.7,18.32 -11.25,36.59 -16.65,54.88 -5.33,18.31 -11.12,36.32 -17.31,54.07l-0.67 3.06c-3.3,10.22 -6.72,20.57 -10.25,31.03 -3.56,10.39 -7.82,20.51 -12.78,30.36 -14.32,26.03 -33.83,40.05 -58.6,42.09 -24.24,2.06 -45.35,-8.26 -63.25,-30.9 -10.05,-12.33 -18.91,-25.47 -26.64,-39.42 -7.72,-14.02 -15.05,-28.3 -21.97,-42.89 -8.09,-15.51 -16.05,-31.36 -23.84,-47.54 -7.82,-16.14 -15.51,-32.29 -23.04,-48.48 -3.46,-7.72 -7.26,-15.61 -11.32,-23.7 -4,-8.06 -7.69,-16.25 -11.05,-24.5 -1.8,-3.63 -4.23,-7.49 -7.32,-11.58 -3.13,-4.17 -7.16,-8.52 -12.12,-13.05l-12.25 -9.99 -3.6 31.3c-0.37,5.26 -0.8,10.65 -1.33,16.24 -0.53,5.6 -1,11.03 -1.33,16.25 -1.33,20.25 -2.66,40.35 -4,60.33 -1.26,19.91 -2.52,39.95 -3.86,60.2 -1.54,28.07 -3.19,56.07 -5.06,84.03 -1.8,27.97 -3.67,56.04 -5.6,84.17 -0.2,9.52 -0.76,18.91 -1.73,28.24 -1,9.32 -2.62,18.24 -4.92,26.76 -3.56,16.62 -11.25,29.94 -23.04,39.96 -11.82,10.05 -25.4,15.11 -40.75,15.18 -15.82,0.1 -29.67,-5.06 -41.55,-15.45 -11.82,-10.45 -19.04,-23.57 -21.71,-39.28 -1.37,-8.02 -2.48,-15.88 -3.33,-23.58 -3.87,6.96 -8.41,13.04 -13.6,18.24 -11.02,10.99 -24.24,16.91 -39.68,17.71 -15.55,1.14 -29.37,-2.67 -41.42,-11.45 -11.98,-8.79 -20.51,-20.88 -25.57,-36.22 -5.33,-16.98 -8.46,-37.29 -9.33,-61 -0.2,-8.69 -2.09,-16.98 -5.72,-24.91 -3.56,-7.98 -11.96,-13.78 -25.17,-17.45 -14.92,-4.05 -29.8,-8.12 -44.61,-12.11 -14.85,-3.99 -29.67,-7.98 -44.49,-11.98 -19.27,-5.6 -38.88,-11.13 -58.86,-16.65 -19.97,-5.49 -39.91,-10.85 -59.79,-16.12 -5.26,-1.13 -11.46,-0.26 -18.64,2.67 -7.19,2.87 -12.89,6.26 -17.05,10.26 -5.8,6.13 -11.52,12.49 -17.18,19.05 -5.59,6.59 -11.05,13.12 -16.38,19.58 -5.27,6.23 -10.76,12.78 -16.52,19.71 -5.69,6.86 -11.68,13.32 -17.97,19.45 -25.5,27.27 -49.78,32.12 -72.85,14.65 -9.42,-6.46 -15.91,-16.68 -19.44,-30.63 -2.67,-10.75 -1.59,-21.91 3.25,-33.48zm2751.19 -1166.71l-1.59 -2.13 -1.86 -1.33c-25.3,-13.75 -47.61,-20.57 -66.99,-20.51 -19.35,0 -40.38,7.06 -63.12,21.18 -21.11,13.05 -40.09,23.94 -56.87,32.63 -22.8,11.55 -37.42,25.13 -43.81,40.75 -6.4,15.65 -5.47,35.29 2.79,59 27.17,71.91 71.52,116.79 133.04,134.64 20.71,5.8 41.38,6.2 62.06,1.2 20.61,-5.07 38.79,-14.85 54.6,-29.43 5.66,-5.07 10.86,-10.79 15.59,-17.18 19.88,-27.5 26,-57.8 18.37,-90.83 -0.36,-2.83 -0.76,-5.52 -1.19,-8.12 -0.47,-2.67 -0.87,-5.06 -1.2,-7.19 -1.59,-7.09 -3.13,-13.91 -4.53,-20.51 -1.33,-6.55 -3.33,-13.08 -5.99,-19.58 -3.93,-8.69 -8.19,-17.31 -12.78,-25.84 -4.63,-8.59 -9.52,-17.05 -14.65,-25.3 -2.06,-3.53 -4.13,-7.06 -6.25,-10.52 -2.07,-3.47 -3.93,-7.1 -5.6,-10.92zm-344.96 421.2l-1.06 -2.4 -1.46 -1.86c-21.41,-19.25 -41.52,-31.1 -60.33,-35.56 -18.85,-4.42 -40.96,-2.4 -66.33,6.13 -23.6,7.66 -44.61,13.78 -62.99,18.37 -24.83,5.97 -42.22,15.82 -52.07,29.57 -9.85,13.68 -13.48,32.96 -10.92,57.79 9.6,76.27 42.22,130.25 97.88,161.94 18.85,10.49 38.83,15.69 60.07,15.59 21.2,-0.06 41.22,-5.33 60.06,-15.72 6.73,-3.73 13.08,-8.16 19.05,-13.31 25.74,-22.11 38.79,-50.08 39.16,-83.9 0.16,-2.83 0.33,-5.53 0.53,-8.12 0.26,-2.67 0.47,-5.13 0.66,-7.46 0.17,-7.09 0.3,-14.02 0.4,-20.77 0.07,-6.73 -0.37,-13.52 -1.33,-20.38 -1.8,-9.48 -3.96,-18.94 -6.52,-28.36 -2.5,-9.39 -5.2,-18.78 -8.12,-28.1 -1.27,-3.73 -2.49,-7.53 -3.73,-11.45 -1.17,-3.9 -2.13,-7.9 -2.93,-11.99zm-650.89 292.22l4.93 9.19 7.98 -7.05c4.19,-3.37 7.96,-6.69 11.32,-9.99 3.3,-3.37 6.76,-6.6 10.39,-9.73 8.36,-6.82 16.35,-13.75 23.97,-20.78 7.63,-7.09 14.79,-14.55 21.44,-22.37 10.82,-12.32 17.88,-22.71 21.18,-31.16 3.26,-8.43 5.6,-15.35 6.92,-20.78l0.8 -6.93c0.07,-6.56 -0.37,-13.78 -1.33,-21.71 -1,-7.89 -4.5,-14.71 -10.52,-20.51 -6.06,-5.76 -14.38,-8.46 -25.03,-8.12 -11.02,0.53 -25.61,4.09 -43.82,10.66 -8.06,3.83 -15.78,7.85 -23.17,12.11 -7.45,4.2 -15.65,10.23 -24.64,18.12 -8.96,7.82 -19.91,18.74 -32.9,32.76l-4.4 5.19 2.93 5.59c5.96,9.96 11.12,18.18 15.45,24.64 4.36,6.39 8.45,12.51 12.25,18.37 3.66,5.8 7.45,11.83 11.45,18.11 3.93,6.23 8.86,14.35 14.79,24.37zm298.18 104.55c-8.99,-24.68 -28.87,-41.09 -59.66,-49.28 -19.81,-5.59 -38.32,-6.79 -55.54,-3.6 -17.25,3.19 -33.35,8.79 -48.34,16.78 -14.92,7.99 -29.43,16.71 -43.55,26.11l-13.59 8.26c-4.46,3.03 -6.59,8.09 -6.39,15.18 0.16,7.13 0.86,12.39 2.12,15.85 3.73,6.93 7.49,14.05 11.32,21.31 3.9,7.29 7.76,14.45 11.59,21.45l8.12 15.31 4.93 7.46c0.96,1.86 1.8,3.53 2.52,4.93 0.8,1.43 1.6,2.86 2.4,4.26 3.46,6.5 6.86,12.92 10.26,19.31 3.36,6.33 6.53,12.78 9.46,19.44 8.96,18.74 23.31,24.04 43.02,15.84 6.19,-2.83 12.12,-5.72 17.71,-8.65 35.06,-18.72 65.45,-46.08 91.22,-82.04 16.25,-22.44 20.38,-45.08 12.39,-67.92zm-1784.43 187.52l144.63 33.96 -43.02 -188.85 -101.61 154.89zm-1981.01 -2690.88c48.64,-18.11 73.45,-72.24 55.33,-120.96 -18.11,-48.67 -72.24,-73.48 -120.99,-55.33 -112.69,41.92 -179.12,29.6 -189.17,27.27 -3.13,-1.16 -3.23,-1 -7.19,-1.83 -82.37,-18.47 -130.21,-64.59 -146.26,-141.03 -10.41,-49.54 0.83,-100.71 30.17,-137.03 83,-102.75 267.11,-24.28 270.18,-23.01 47.34,20.94 102.81,-0.3 123.92,-47.58 21.24,-47.41 -0.03,-103.04 -47.44,-124.29 -7.86,-3.5 -79.24,-34.46 -170.87,-43.48 -136.34,-13.38 -247.74,28.1 -322.09,120.16 -65.42,80.97 -90.23,188.11 -67.98,293.98 31.33,148.73 133.01,249.88 286.56,285.2 24.5,6.65 113.7,24.94 248.9,-13.42 18.12,-5.16 37.06,-11.32 56.77,-18.68l0.16 0.03zm5168.6 -5.33c-36.19,49.91 -98.98,109.67 -192.9,111.17 -152.56,2.43 -196.67,-87.36 -226.03,-171.73 -3.76,-10.72 -6.96,-20.02 -10.85,-28.77 -23.67,-52.54 -69.32,-66.42 -104.04,-61.79 -18.88,2.49 -65.56,14.61 -92.13,73.75 -42.58,94.65 -31.86,344.16 126.69,578.91 4.39,6.46 437.15,658.11 278.84,1358.69 -90.56,401.06 -360.27,736.13 -801.42,996.05 -508.53,299.61 -1096.16,374.66 -1499.52,384.95 -441.28,11.15 -765.09,-50.64 -768.29,-51.27 -0.33,-0.04 -0.73,-0.1 -1.1,-0.24 -1444.42,-264.45 -1975.66,-1488.73 -2137.03,-2002.82 -47.21,-150.29 -164.37,-263.92 -313.39,-304.04 -345.95,-93.05 -673.54,-332.97 -887.48,-517.95 -209.42,-181.02 -370.76,-394.53 -479.63,-634.61 -122.82,-270.91 -182.18,-556.58 -176.45,-849.19 10.29,-523.45 268.01,-1009.8 689.45,-1301.05 147.36,-101.81 309.46,-177.99 483.73,-227.46 59.73,-16.94 120.96,-30.83 183.52,-41.42 197.76,-33.72 409.58,-35.99 629.55,-6.69 364.86,48.48 632.95,169 654.25,178.78 913.05,477.91 969.58,1313.64 951.47,1650.97 -5.76,106.97 13.71,213.72 56.3,308.81 88.23,196.93 72.64,359.07 34.33,472.67 -46.02,89.93 -113.83,171.63 -203.12,244.15 -118.13,95.92 -233.86,141.5 -248.68,147.06 -413.64,124.52 -713.82,290.56 -892.07,493.45 -128.25,146.06 -150.28,265.72 -153.99,299.21 -37.92,210.72 67.92,401.85 163.75,525.54 93.39,120.52 220.8,205.82 358.9,240.42 119.63,29.93 231.46,22.14 331.88,-6.4 273.94,-77.74 462.78,-309.43 493.28,-348.82 196.53,-202.96 689.18,-430.66 694.17,-432.95 2.67,-1.24 5.36,-2.63 7.92,-4.06 199.27,-115.63 440.65,-308.03 543.63,-596.32 208.02,137.63 353.15,274.97 355.61,277.3 35.73,34.2 91.76,34.83 128.31,1.54 36.56,-33.3 41.05,-89.16 10.42,-127.88 -332.97,-420.6 -476.23,-804.75 -403.25,-1081.59 72.88,-276.46 237.55,-466.04 463.65,-533.89 308.8,-92.6 566.13,-40.39 658.58,0.03 4.5,1.99 9.1,3.63 13.82,4.9 366.43,99.91 602.08,393.3 606.68,399.02 31.93,40.82 91.06,48.04 131.98,16.14 40.89,-31.96 48.21,-91.08 16.22,-132.01 -5.36,-6.89 -71.44,-90.29 -187.94,-187.31 23.46,-94.42 79.6,-199.09 212.44,-205.45 243.44,-11.56 480.6,261.09 560.67,520.35 64.32,208.19 40.56,432.71 -60.49,572.02l-0.2 -0.14zm-3274.07 -372.45c49.44,-28.43 119.49,-49.91 190.07,-50.44 42.08,-0.33 84.43,6.73 122.55,24.18 17.48,7.98 37.09,19.61 58.2,36.29 66.35,52.37 147.92,155.02 227.86,354.81 3.07,7.72 29.96,79.24 31.53,185.65 0.43,31.5 -1.3,66.03 -6.59,102.85 -4.32,30.43 -11.15,62.53 -21.04,95.82 -13.82,46.58 -33.83,95.46 -61.9,145.43 -30.56,54.43 -70.68,110.07 -122.95,165.64 -70.59,75.01 -163.3,149.79 -284.6,220.57 -54.2,25.21 -539.83,254.06 -751.01,475.77 -2.53,2.63 -4.96,5.56 -7.15,8.49 -2.13,2.84 -167.7,219.21 -398.57,284.76 -72.58,20.61 -151.72,26.27 -234.18,5.7 -97.32,-24.34 -188.21,-85.83 -255.9,-173.16 -131.84,-170.16 -141.66,-300.41 -126.71,-379.75 0.96,-5.22 1.4,-6.52 1.5,-11.25 1.53,-10.55 17.01,-97.04 123.35,-211.01 196.73,-210.85 539.52,-345.62 792.46,-421.57 1.51,-0.43 2.93,-0.9 4.4,-1.4 6.06,-2.14 150.09,-54 300.51,-174.59 21.68,-17.38 42.35,-35.33 62.09,-53.84 46.65,-43.61 87.93,-90.19 123.62,-139.3 29.5,-40.69 55.2,-83.07 76.94,-127.06 45.04,-91.22 73.24,-189.24 83.3,-292.02 0.96,-10.05 19.88,-40.42 72.11,-70.51l0.11 -0.03z"/>
 </g>
</svg>
