<?xml version="1.0" encoding="UTF-8"?>
<!DOCTYPE svg PUBLIC "-//W3C//DTD SVG 1.1//EN" "http://www.w3.org/Graphics/SVG/1.1/DTD/svg11.dtd">
<!-- Creator: CorelDRAW -->
<svg xmlns="http://www.w3.org/2000/svg" xml:space="preserve" width="518.214mm" height="389.072mm" version="1.1" style="shape-rendering:geometricPrecision; text-rendering:geometricPrecision; image-rendering:optimizeQuality; fill-rule:evenodd; clip-rule:evenodd"
viewBox="0 0 6716.76 5042.91"
 xmlns:xlink="http://www.w3.org/1999/xlink"
 xmlns:xodm="http://www.corel.com/coreldraw/odm/2003">
 <defs>
  <style type="text/css">
   <![CDATA[
    .fil0 {fill:#D581A1}
   ]]>
  </style>
 </defs>
 <g id="Camada_x0020_1">
  <metadata id="CorelCorpID_0Corel-Layer"/>
  <path class="fil0" d="M3140.59 1098.86c102.78,-141.78 217.59,-255.61 336.9,-364.31 120.77,-109.96 247.85,-209.27 381.67,-296.81 128.87,20.4 247.18,85.91 332.06,185.6 97.41,114.41 140.32,258.69 120.85,406.25 -19.95,150.69 -97.08,291.49 -229.33,418.42 -35.06,33.63 -76.85,65.59 -124.3,94.89 -5.16,3.2 -10.76,6.63 -16.75,10.33 -100.75,61.71 -310.36,190.2 -443.94,401.85 -32.57,51.58 -58.59,105.11 -78.03,160.19 -74.62,-6.9 -146.86,15.41 -194.67,42.93 -10.31,5.93 -19.81,12.25 -28.59,18.86 -7.01,-24.53 -16.13,-49.93 -27.87,-76.11 -17.7,-39.52 -25.79,-84.2 -23.37,-129.17 6.38,-118.73 -2.5,-301.12 -80.96,-495.75 -98.55,-244.35 -277.77,-435.73 -532.7,-568.85 -0.64,-0.33 -1.24,-0.66 -1.88,-0.95 -7.01,-3.34 -174.11,-81.56 -410.53,-113.52 -139.46,-18.88 -274.26,-17.61 -400.74,3.64 -159.28,26.83 -305.44,85.65 -434.43,174.79 -274.2,189.52 -441.89,505.5 -448.6,845.31 -3.66,186.79 34.17,369.01 112.51,541.69 69.95,154.26 173.35,291.19 307.31,407.04 133.19,115.13 338.43,264.86 559.79,324.43 50.45,13.57 90.26,52.49 106.43,104.03 53.42,170.21 158.04,423.47 353.24,663.5 252.78,310.85 580.92,505.08 975.29,577.33 12.05,2.33 202.66,38.26 467.82,31.82 136.99,-3.32 308.65,-18.88 488.27,-63.51l121.4 -34.46c107.47,-34.51 215.61,-80.46 318.9,-141.29 283.89,-167.27 458.13,-385.98 517.77,-650.08 39.44,-174.65 28.01,-363.72 -34.05,-561.96 -57.12,-182.47 -135.54,-301.43 -144.32,-314.4 -20.91,-30.93 -35.66,-61.81 -45.94,-90.53 37.64,23.49 83,34.89 135.36,34.05 77.94,-1.22 148.7,-40.25 199.21,-109.89 78.36,-108.04 98.46,-276.64 51.23,-429.62l-0.04 0.02c-34.13,-110.48 -98.28,-209.83 -180.62,-279.78 -80.82,-68.63 -171.55,-104.2 -255.65,-100.21 -55.9,2.66 -106.24,23.3 -145.46,59.68 -28.57,26.46 -50.72,60.36 -66.29,101.14 -57.59,-36.56 -126.24,-70.53 -204.35,-92.26 -30.74,-12.54 -208.64,-77.14 -455.23,-3.06 -167.11,50.12 -292.61,191.5 -344.36,387.8 -8.84,33.59 -13.53,69.02 -14.13,106.01 -40.43,-63.74 -85.48,-109.57 -134.78,-136.83 16.52,-45.82 38.37,-90.34 65.67,-133.56 119.97,-190.06 314.9,-309.49 408.55,-366.94 6.12,-3.72 11.84,-7.25 17.12,-10.51 53.98,-33.39 101.97,-70.08 142.55,-109.06 150.62,-144.61 238.77,-307.13 262.06,-483.08 23.61,-178.69 -28.22,-353.28 -146.04,-491.59 -76.51,-89.85 -175.6,-156.55 -285.65,-194.57 182.89,-105.79 377.84,-190.29 585.88,-250.79 293.21,-85.32 591.76,-115.77 897.99,-70.47 326.03,48.55 612.41,177.5 847.29,406.27 171.47,167.02 279.82,374.56 343.64,607.84 51.6,188.39 59.37,378.43 49.1,570.37 -5.87,87.71 -17.81,174.58 -35.86,260.61 -76.09,386.49 -219.19,748.36 -407.64,1092.06 -133.82,243.61 -291.33,472.3 -487.15,671.16 -134.57,136.58 -269.84,272.88 -411.97,401.34 -178.6,161.42 -376.78,297.92 -581.26,424.94 -324.9,201.78 -665.89,369.93 -1027.21,496.16 -69.37,24.29 -140.54,45.16 -210.93,67.22 -45.86,14.36 -87.69,10.12 -133.25,-11.46 -353.14,-166.88 -703.78,-338.76 -1035.54,-545.2 -227.37,-141.35 -450.28,-290.03 -668.74,-446.02 -274.68,-196.63 -532.37,-414.85 -765.17,-660.7 -337.73,-357.15 -619.62,-752.45 -797.34,-1214.5 -101.9,-265.03 -163,-540.2 -148.72,-825.98 17.97,-359.65 126.88,-685.66 391.5,-943.07 188.45,-183.2 416.17,-293.97 673.39,-349.89 256.02,-55.49 510.66,-47.5 763,9.31 70.51,15.83 139.9,35.54 208.18,59.15 68.28,23.61 135.03,50.96 200.25,82.06 65.22,31.09 128.5,65.72 189.83,103.93 61.34,38.18 120.34,79.7 177.01,124.49 201.17,157.75 364.11,346.83 481.69,574.27 8.45,16.38 15.31,33.51 23.43,50.08 8.12,16.57 16.51,31.63 30.25,57.86zm32.8 3034.54c-1.6,1.93 -3.25,3.85 -4.94,5.75 -6.63,6.92 -13.8,11.24 -21.55,12.95 -7.76,1.71 -15.39,0.66 -22.87,-3.1 -6.67,-3.26 -12,-8.65 -15.97,-16.13 -4,-7.45 -4.42,-15.93 -1.32,-25.43 8.99,-29.15 21.96,-61.79 38.92,-97.92 4.34,-9.88 9.17,-19.52 14.5,-28.92 5.37,-9.35 10.58,-18.63 15.66,-27.83 2.33,-4.34 4.77,-8.68 7.37,-13.02 2.58,-4.38 5.06,-8.76 7.44,-13.1 1.34,-2.42 2.52,-5.08 3.57,-7.98 1.08,-2.94 1.78,-6.28 2.09,-10l0.62 -10.78 -12.17 8.68c-1.3,1.05 -2.6,2.08 -3.88,3.1 -1.24,1.05 -2.48,2.09 -3.72,3.18 -4.92,4.34 -9.77,8.66 -14.57,12.95 -4.77,4.24 -9.54,8.53 -14.34,12.87 -8.34,7.4 -16.57,14.85 -24.73,22.32 -8.12,7.5 -16.42,14.77 -24.89,21.79l-1.24 1.32c-4.71,4.13 -9.52,8.26 -14.42,12.4 -4.92,4.13 -10.08,7.91 -15.51,11.32 -14.88,8.68 -28.84,9.79 -41.86,3.33 -12.71,-6.2 -20.14,-17.66 -22.25,-34.34 -1.36,-9.15 -1.84,-18.37 -1.48,-27.68 0.35,-9.34 0.97,-18.68 1.86,-27.99 0.66,-10.17 1.48,-20.46 2.4,-30.86 0.97,-10.39 2.02,-20.74 3.1,-31.09 0.62,-4.9 1.1,-9.96 1.47,-15.2 0.41,-5.21 1.01,-10.41 1.78,-15.58 0.19,-2.37 0.16,-5.06 -0.15,-8.07 -0.27,-2.98 -0.97,-6.36 -2.09,-10.08l-3.18 -8.6 -11.09 14.42c-1.77,2.6 -3.63,5.2 -5.59,7.83 -1.98,2.64 -3.84,5.2 -5.58,7.68 -6.72,9.67 -13.39,19.28 -20,28.84 -6.63,9.58 -13.29,19.19 -20,28.84 -9.21,13.6 -18.45,27.09 -27.76,40.47 -9.3,13.39 -18.68,26.81 -28.14,40.23 -2.91,4.71 -6.01,9.23 -9.3,13.57 -3.26,4.38 -6.79,8.39 -10.54,12.02 -6.73,7.13 -14.54,11.42 -23.41,12.87 -8.9,1.49 -17.19,-0.04 -24.88,-4.57 -7.97,-4.77 -13.34,-11.51 -16.13,-20.24 -2.76,-8.72 -2.45,-17.4 0.93,-26.05 7.02,-17.99 15.43,-33.28 25.2,-45.9 42.42,-54.42 86.71,-109.24 132.88,-164.44 10.49,-12.87 23.1,-24.05 37.84,-33.57 13.33,-8.16 26.05,-10.15 38.14,-5.97 1.75,0.68 3.45,1.45 5.12,2.32 8.93,4.93 15.37,13.01 19.3,24.27 6.2,18.2 10.41,41.62 12.64,70.24 0.77,8.9 1.08,17.97 0.93,27.22 -0.12,9.21 -0.13,18.57 -0.08,28.06 -0.31,4.34 -0.52,8.72 -0.62,13.1 -0.11,4.34 -0.19,8.8 -0.23,13.33l0 10.54 8.37 -6.51c3.1,-2.48 6.14,-5 9.15,-7.59 2.98,-2.58 6.07,-5.12 9.23,-7.6 6.7,-5.83 13.28,-11.36 19.69,-16.59 6.4,-5.27 12.95,-10.51 19.62,-15.74 14.88,-11.11 31.36,-21.94 49.46,-32.48 8.88,-5.27 18.84,-9.26 29.85,-12.01 19.07,-4.65 34.61,-1.94 46.67,8.14 12.04,10.14 17.21,25.12 15.51,44.97 -2.6,34.07 -12.87,72.37 -30.86,114.89l-11.24 26.05c-6.97,17.25 -14.3,34.77 -21.94,52.56 -6.19,14.55 -12.52,28.81 -18.95,42.8 12.53,-19.41 26.45,-40.04 41.77,-61.93 16.75,-23.97 36.92,-50.56 60.55,-79.77 6.7,-8.31 14.05,-16.98 22.02,-25.97 8.01,-9.03 16.48,-17.72 25.43,-26.05 9.19,-8.31 21.26,-14.67 36.21,-19.07 11.32,-3.72 21.47,-4.51 30.47,-2.4 15.91,3.72 27.06,15.7 33.42,35.9 12.4,40.27 24,81.87 34.81,124.82 8.68,34.52 14.66,69.77 17.93,105.76 7.38,-58.18 15.73,-117.31 25.02,-177.39 2.37,-16.48 7.4,-32.56 15.12,-48.22 7.23,-13.89 17.09,-22.17 29.61,-24.81 1.86,-0.35 3.72,-0.58 5.58,-0.7 10.18,-0.4 19.88,3.22 29.15,10.86 14.62,12.3 30.28,30.19 46.98,53.65 5.22,7.19 10.16,14.79 14.81,22.79 4.65,8.03 9.46,16.09 14.42,24.19 2.02,3.94 4.07,7.79 6.2,11.55 2.17,3.72 4.41,7.56 6.74,11.47l5.51 8.99 3.72 -9.84c1.39,-3.72 2.71,-7.44 3.95,-11.16 1.24,-3.76 2.52,-7.54 3.88,-11.32 2.73,-8.41 5.5,-16.53 8.29,-24.35 2.79,-7.85 5.7,-15.7 8.76,-23.57 6.97,-17.25 15.52,-35.04 25.66,-53.34 4.9,-9.15 11.36,-17.71 19.38,-25.74 13.9,-13.84 28.61,-19.56 44.11,-17.13 12.36,1.97 22.57,8.82 30.63,20.52 1.12,-2.46 2.66,-4.8 4.62,-6.99 3.57,-4.03 8.05,-6.82 13.41,-8.37 3.78,-1.13 7.83,-1.44 12.17,-0.93 4.34,0.47 8.72,2.09 13.1,4.89 8.99,5.42 17.68,11.59 26.05,18.45 8.34,6.82 16.52,13.55 24.58,20.16l1.39 1.48c6.92,5.95 13.8,12.01 20.62,18.22 6.86,6.2 13.88,12.56 21.01,19.07 3.35,2.85 6.69,5.8 10,8.84 3.35,3.01 6.78,6.09 10.31,9.23l5.35 5.19 13.1 -33.88c3.98,-10.24 7.87,-20.26 11.71,-30.08 3.82,-9.81 7.68,-19.64 11.55,-29.46 0.66,-2.11 1.34,-4.15 2.01,-6.12 0.66,-2.02 1.34,-4.11 2.02,-6.28 1.18,-3.51 2.4,-6.92 3.64,-10.23 1.24,-3.29 2.67,-6.45 4.34,-9.46 4.59,-9.4 10.87,-16.09 18.84,-20.08 2.96,-1.49 5.93,-2.52 8.93,-3.09 1.57,-4.45 3.2,-9 4.9,-13.63 2.64,-7.17 6.28,-12.91 10.93,-17.21 27.19,-25 55.34,-45.99 84.43,-62.95 1.46,-1.12 3.14,-2.19 5.04,-3.18 36.13,-19.32 70.42,-17.02 102.88,6.9 29.31,21.4 39.04,49.75 29.23,85.05 -0.52,1.61 -1.16,3.34 -1.94,5.2 -0.78,1.82 -1.71,3.7 -2.79,5.66 -0.52,0.99 -1.01,2.06 -1.47,3.18 -0.43,1.08 -0.89,2.15 -1.4,3.18l-2.95 6.2 6.59 0.69c2.42,0.47 4.65,0.86 6.67,1.17 2.06,0.27 4.07,0.6 6.05,1.01 3.92,0.68 7.48,1.3 10.7,1.86 3.25,0.52 6.47,1.16 9.69,1.94 11.21,2.37 21.48,6.03 30.81,11.02 -7.1,-10.27 -12.88,-21.11 -17.36,-32.51 -27.95,-71.48 -18.14,-133.69 29.46,-186.69l3.25 -4.03c1.67,-1.8 3.33,-3.64 5.04,-5.5 1.67,-1.86 3.41,-3.59 5.27,-5.2 2.08,-1.74 4.15,-3.12 6.2,-4.11 18.92,-9.65 37.35,-17.3 55.28,-22.95 17.89,-5.62 35.47,-8.06 52.8,-7.28 17.31,0.78 34.7,5.56 52.18,14.34 6.22,3.14 12.49,6.9 18.78,11.29 -38.09,-59.91 -41.01,-119.68 -8.76,-179.27l2.25 -4.65c1.2,-2.11 2.4,-4.26 3.64,-6.43 1.2,-2.21 2.52,-4.34 3.95,-6.36 1.61,-2.21 3.3,-4.03 5.04,-5.42 16.13,-13.84 32.25,-25.58 48.38,-35.2 16.13,-9.65 32.7,-16.13 49.7,-19.38 17.02,-3.3 35.04,-2.71 54.12,1.78 19.07,4.5 39.5,13.72 61.32,27.68 31.27,27.19 50.9,56.03 58.92,86.52 1.13,5.85 2.43,11.55 3.88,17.13 1.44,5.58 2.75,11.3 3.95,17.13l3.41 13.33c10.64,44.19 -0.45,83.94 -33.26,119.24 -2.28,2.6 -4.65,5.08 -7.13,7.44 -2.48,2.38 -4.96,4.77 -7.44,7.13l-1.48 1.24c-33.55,30.54 -71.42,43.41 -113.65,38.61 -23.36,-2.42 -45.94,-10.1 -67.76,-23.02 -3.98,-2.37 -7.82,-4.84 -11.52,-7.41 15.46,26.63 23.48,52.56 24.06,77.79 -0.27,5.89 -0.35,11.74 -0.23,17.52 0.09,5.8 0.04,11.63 -0.16,17.52l0.23 13.8c0,45.49 -20.06,81.56 -60.16,108.23 -2.79,2.01 -5.7,3.92 -8.68,5.66 -2.95,1.71 -5.93,3.41 -8.92,5.12l-1.63 0.85c-39.7,21.86 -79.59,25.57 -119.62,11.09 -13.9,-4.89 -27.01,-11.72 -39.35,-20.49 11.89,22.35 15.02,46.47 9.38,72.38 -2.38,12.52 -6.04,22.32 -11.01,29.46 -38.26,58.61 -86.27,92.71 -144.05,102.26 -12,1.86 -25.49,1.2 -40.47,-2.02 -12.87,-2.52 -21.09,-11.4 -24.66,-26.59 -2.42,-9.87 -6.07,-19.64 -10.93,-29.31 -8.72,-16.94 -17.41,-33.84 -26.05,-50.7 -8.68,-16.9 -17.33,-33.68 -25.97,-50.39 -6.86,-13.49 -13.82,-27 -20.86,-40.54 -5.16,-9.95 -10.29,-19.9 -15.38,-29.84 -6.49,20.78 -13.32,41.06 -20.47,60.82 -8.53,23.62 -16.57,45.56 -24.11,65.82 -4.65,12.37 -4.41,24.34 0.7,35.97 14.27,33.71 26.09,65.26 35.51,94.66 4.5,13.76 4.75,25.89 0.77,36.44 -3.93,10.51 -11.2,17.49 -21.78,20.94 -9.05,3.06 -18.14,2.24 -27.29,-2.41 -11.48,-6.24 -19.58,-17.21 -24.27,-32.87 -2.6,-8.57 -4.92,-17.37 -6.98,-26.36 -2.01,-9.03 -3.85,-17.99 -5.51,-26.83 -1.39,-5.73 -2.64,-11.49 -3.72,-17.29 -1.08,-5.78 -2.31,-11.51 -3.64,-17.21 -0.99,-3.2 -2.69,-6.46 -5.12,-9.77 -2.44,-3.29 -5.41,-5.39 -8.92,-6.28 -31.84,-9.77 -60.39,-28.42 -85.67,-55.97 -7.7,-8.32 -15.06,-16.98 -22.1,-25.97 -7.02,-9.03 -13.96,-18 -20.78,-26.9l-1.38 -1.7c5.56,19.23 9.98,40.41 13.28,63.53l3.88 27.99c2.89,18.45 5.66,37.27 8.29,56.44 2.64,19.19 4.96,38.12 6.97,56.83 1.49,16.34 0.62,33.22 -2.63,50.63 -2.14,9.3 -6.09,16.71 -11.86,22.17 -5.8,5.43 -12.87,8.49 -21.24,9.15 -7.35,0.62 -14.65,-1.24 -21.94,-5.58 -7.28,-4.34 -12.06,-11.4 -14.27,-21.16 -7.35,-29.62 -13.06,-64.24 -17.13,-103.89 -1.39,-10.74 -2.23,-21.52 -2.48,-32.33 -0.27,-10.8 -0.62,-21.44 -1.09,-31.94 -0.15,-4.9 -0.27,-9.88 -0.31,-14.96 -0.06,-5.12 -0.19,-10.1 -0.38,-14.96 -0.12,-2.79 -0.47,-5.7 -1.08,-8.76 -0.58,-3.05 -1.71,-6.24 -3.41,-9.62l-4.89 -9.53 -5.97 13.72c-0.58,1.55 -1.15,3.1 -1.71,4.65 -0.52,1.55 -1.05,3.14 -1.55,4.73 -1.92,6.2 -3.85,12.36 -5.81,18.45 -1.92,6.1 -3.8,12.25 -5.66,18.45 -3.32,10.66 -6.55,21.3 -9.69,31.95 -3.1,10.66 -6.47,21.15 -10.08,31.48l-0.39 1.78c-1.92,5.95 -3.91,11.98 -5.97,18.06 -2.07,6.05 -4.55,11.94 -7.44,17.68 -8.34,15.16 -19.69,23.31 -34.12,24.5 -14.11,1.2 -26.4,-4.81 -36.82,-17.99 -5.85,-7.18 -11.01,-14.83 -15.51,-22.95 -4.5,-8.16 -8.76,-16.48 -12.79,-24.97 -4.71,-9.03 -9.35,-18.26 -13.88,-27.68 -4.55,-9.4 -9.03,-18.8 -13.41,-28.22 -2.01,-4.5 -4.23,-9.09 -6.59,-13.8 -2.33,-4.69 -4.48,-9.46 -6.43,-14.27 -1.05,-2.11 -2.46,-4.36 -4.26,-6.74 -1.82,-2.43 -4.17,-4.96 -7.06,-7.6l-7.13 -5.81 -2.09 18.22c-0.21,3.06 -0.47,6.2 -0.78,9.45 -0.31,3.26 -0.58,6.42 -0.78,9.46 -0.78,11.79 -1.55,23.49 -2.33,35.12 -0.73,11.59 -1.47,23.26 -2.25,35.04 -0.89,16.34 -1.86,32.64 -2.94,48.92 -1.05,16.28 -2.14,32.62 -3.26,49 -0.11,5.54 -0.44,11.01 -1.01,16.44 -0.58,5.42 -1.53,10.62 -2.86,15.58 -2.07,9.67 -6.55,17.43 -13.41,23.26 -6.88,5.85 -14.79,8.8 -23.72,8.84 -9.21,0.06 -17.27,-2.94 -24.19,-8.99 -6.88,-6.09 -11.09,-13.72 -12.64,-22.87 -0.8,-4.67 -1.44,-9.25 -1.94,-13.73 -2.26,4.05 -4.9,7.59 -7.92,10.62 -6.41,6.4 -14.11,9.84 -23.1,10.31 -9.05,0.66 -17.1,-1.55 -24.11,-6.67 -6.98,-5.12 -11.94,-12.15 -14.88,-21.09 -3.1,-9.88 -4.92,-21.71 -5.43,-35.51 -0.11,-5.06 -1.22,-9.88 -3.33,-14.5 -2.08,-4.65 -6.96,-8.02 -14.66,-10.16 -8.68,-2.36 -17.35,-4.73 -25.97,-7.05 -8.65,-2.32 -17.27,-4.65 -25.9,-6.97 -11.22,-3.26 -22.63,-6.48 -34.27,-9.69 -11.63,-3.2 -23.23,-6.32 -34.81,-9.38 -3.06,-0.66 -6.67,-0.15 -10.85,1.55 -4.19,1.67 -7.5,3.64 -9.93,5.97 -3.37,3.57 -6.7,7.27 -10,11.09 -3.25,3.84 -6.43,7.64 -9.53,11.4 -3.07,3.63 -6.26,7.44 -9.62,11.48 -3.31,3.99 -6.8,7.75 -10.46,11.32 -14.85,15.87 -28.98,18.7 -42.41,8.53 -5.48,-3.76 -9.26,-9.71 -11.32,-17.83 -1.56,-6.26 -0.93,-12.76 1.89,-19.49zm1601.61 -679.2l-0.93 -1.24 -1.08 -0.78c-14.73,-8 -27.72,-11.98 -39,-11.94 -11.26,0 -23.51,4.11 -36.75,12.33 -12.29,7.6 -23.34,13.94 -33.11,18.99 -13.28,6.72 -21.78,14.63 -25.5,23.72 -3.73,9.11 -3.18,20.55 1.63,34.35 15.82,41.86 41.63,67.99 77.45,78.38 12.06,3.37 24.09,3.61 36.13,0.7 12,-2.95 22.58,-8.65 31.79,-17.13 3.3,-2.95 6.32,-6.28 9.07,-10 11.57,-16.01 15.14,-33.65 10.7,-52.88 -0.21,-1.65 -0.44,-3.22 -0.69,-4.73 -0.27,-1.55 -0.5,-2.94 -0.7,-4.19 -0.93,-4.13 -1.82,-8.1 -2.64,-11.94 -0.78,-3.82 -1.94,-7.62 -3.49,-11.4 -2.29,-5.06 -4.77,-10.08 -7.44,-15.04 -2.7,-5 -5.54,-9.93 -8.53,-14.73 -1.2,-2.06 -2.4,-4.11 -3.64,-6.12 -1.2,-2.02 -2.29,-4.13 -3.26,-6.36zm-200.82 245.2l-0.62 -1.39 -0.85 -1.08c-12.47,-11.21 -24.17,-18.1 -35.12,-20.7 -10.97,-2.57 -23.84,-1.39 -38.61,3.57 -13.74,4.46 -25.97,8.02 -36.67,10.7 -14.46,3.47 -24.58,9.21 -30.31,17.22 -5.73,7.97 -7.85,19.19 -6.36,33.65 5.59,44.4 24.58,75.83 56.98,94.27 10.97,6.11 22.6,9.13 34.97,9.07 12.34,-0.04 23.99,-3.1 34.96,-9.15 3.92,-2.17 7.62,-4.75 11.09,-7.75 14.98,-12.87 22.58,-29.15 22.8,-48.84 0.1,-1.65 0.19,-3.22 0.31,-4.73 0.15,-1.55 0.27,-2.99 0.38,-4.34 0.1,-4.13 0.18,-8.16 0.23,-12.09 0.04,-3.92 -0.21,-7.87 -0.78,-11.87 -1.05,-5.52 -2.3,-11.02 -3.8,-16.51 -1.46,-5.47 -3.03,-10.93 -4.73,-16.36 -0.74,-2.17 -1.45,-4.38 -2.17,-6.67 -0.68,-2.27 -1.24,-4.6 -1.71,-6.98zm-378.92 170.12l2.87 5.35 4.65 -4.11c2.44,-1.96 4.63,-3.9 6.59,-5.81 1.92,-1.96 3.94,-3.84 6.05,-5.66 4.87,-3.97 9.52,-8 13.96,-12.09 4.44,-4.13 8.61,-8.47 12.48,-13.02 6.3,-7.17 10.41,-13.22 12.33,-18.14 1.9,-4.91 3.26,-8.94 4.03,-12.09l0.47 -4.03c0.04,-3.82 -0.21,-8.02 -0.78,-12.64 -0.58,-4.59 -2.62,-8.56 -6.12,-11.94 -3.53,-3.35 -8.37,-4.93 -14.57,-4.73 -6.41,0.31 -14.91,2.38 -25.51,6.2 -4.69,2.23 -9.19,4.57 -13.49,7.05 -4.34,2.45 -9.11,5.95 -14.34,10.55 -5.21,4.55 -11.59,10.91 -19.15,19.07l-2.56 3.02 1.71 3.25c3.47,5.8 6.47,10.58 8.99,14.35 2.54,3.72 4.92,7.29 7.13,10.7 2.13,3.37 4.34,6.89 6.67,10.54 2.29,3.63 5.16,8.35 8.61,14.19zm173.59 60.86c-5.23,-14.37 -16.81,-23.92 -34.73,-28.69 -11.53,-3.25 -22.31,-3.95 -32.33,-2.09 -10.04,1.86 -19.42,5.12 -28.14,9.77 -8.68,4.65 -17.13,9.73 -25.35,15.2l-7.91 4.81c-2.6,1.77 -3.84,4.71 -3.72,8.84 0.09,4.15 0.5,7.21 1.24,9.23 2.17,4.03 4.36,8.18 6.59,12.4 2.27,4.24 4.52,8.41 6.75,12.49l4.73 8.91 2.87 4.34c0.56,1.08 1.05,2.06 1.47,2.87 0.47,0.83 0.93,1.67 1.39,2.48 2.02,3.78 4,7.52 5.97,11.24 1.95,3.68 3.8,7.44 5.5,11.32 5.21,10.91 13.57,13.99 25.04,9.22 3.61,-1.65 7.06,-3.33 10.31,-5.03 20.41,-10.9 38.1,-26.83 53.11,-47.76 9.46,-13.07 11.86,-26.25 7.21,-39.54zm-1038.81 109.17l84.19 19.77 -25.04 -109.94 -59.15 90.17zm-1153.25 -1566.5c28.32,-10.54 42.76,-42.06 32.21,-70.42 -10.54,-28.33 -42.06,-42.78 -70.43,-32.21 -65.61,24.4 -104.27,17.23 -110.13,15.87 -1.82,-0.68 -1.88,-0.58 -4.19,-1.07 -47.95,-10.75 -75.8,-37.6 -85.15,-82.1 -6.06,-28.84 0.48,-58.63 17.56,-79.77 48.32,-59.82 155.5,-14.13 157.28,-13.39 27.56,12.19 59.85,-0.18 72.14,-27.7 12.37,-27.6 -0.02,-59.99 -27.62,-72.35 -4.58,-2.04 -46.13,-20.06 -99.47,-25.31 -79.37,-7.79 -144.22,16.36 -187.5,69.95 -38.08,47.14 -52.52,109.51 -39.58,171.14 18.24,86.58 77.43,145.47 166.82,166.03 14.26,3.87 66.19,14.52 144.9,-7.81 10.55,-3 21.57,-6.59 33.05,-10.87l0.09 0.02zm3008.91 -3.1c-21.07,29.05 -57.62,63.85 -112.3,64.72 -88.81,1.41 -114.49,-50.86 -131.59,-99.97 -2.19,-6.24 -4.05,-11.65 -6.32,-16.75 -13.78,-30.58 -40.35,-38.66 -60.57,-35.97 -10.99,1.45 -38.16,8.51 -53.63,42.93 -24.79,55.1 -18.55,200.35 73.75,337.01 2.56,3.76 254.48,383.12 162.32,790.96 -52.72,233.48 -209.73,428.54 -466.55,579.85 -296.04,174.42 -638.13,218.11 -872.95,224.1 -256.89,6.49 -445.4,-29.48 -447.26,-29.85 -0.19,-0.02 -0.43,-0.06 -0.64,-0.14 -840.87,-153.95 -1150.13,-866.67 -1244.08,-1165.94 -27.48,-87.49 -95.69,-153.64 -182.44,-177 -201.4,-54.17 -392.1,-193.84 -516.65,-301.53 -121.91,-105.38 -215.84,-229.68 -279.22,-369.44 -71.5,-157.71 -106.06,-324.01 -102.72,-494.36 5.99,-304.73 156.02,-587.86 401.36,-757.41 85.78,-59.27 180.15,-103.62 281.6,-132.42 34.77,-9.86 70.42,-17.95 106.83,-24.11 115.13,-19.63 238.43,-20.95 366.5,-3.89 212.4,28.22 368.47,98.38 380.88,104.08 531.53,278.21 564.44,764.74 553.9,961.12 -3.35,62.27 7.98,124.41 32.77,179.77 51.36,114.64 42.29,209.03 19.98,275.16 -26.79,52.35 -66.27,99.92 -118.25,142.13 -68.77,55.84 -136.14,82.37 -144.77,85.61 -240.8,72.49 -415.55,169.15 -519.32,287.26 -74.66,85.03 -87.49,154.69 -89.64,174.19 -22.07,122.67 39.54,233.94 95.32,305.94 54.37,70.16 128.54,119.82 208.93,139.96 69.64,17.43 134.75,12.89 193.2,-3.73 159.47,-45.25 269.41,-180.13 287.16,-203.06 114.41,-118.15 401.21,-250.71 404.11,-252.04 1.55,-0.72 3.12,-1.53 4.61,-2.37 116,-67.31 256.53,-179.32 316.47,-347.15 121.1,80.12 205.59,160.07 207.02,161.43 20.8,19.91 53.42,20.27 74.7,0.89 21.28,-19.39 23.9,-51.91 6.07,-74.45 -193.84,-244.85 -277.24,-468.49 -234.75,-629.65 42.43,-160.94 138.29,-271.31 269.92,-310.81 179.77,-53.91 329.57,-23.51 383.39,0.02 2.62,1.16 5.3,2.11 8.05,2.85 213.32,58.16 350.5,228.96 353.18,232.29 18.59,23.76 53.01,27.97 76.83,9.4 23.8,-18.6 28.07,-53.02 9.44,-76.85 -3.12,-4.01 -41.59,-52.56 -109.41,-109.04 13.66,-54.97 46.34,-115.9 123.67,-119.6 141.72,-6.73 279.78,151.99 326.39,302.92 37.45,121.2 23.61,251.91 -35.21,333l-0.12 -0.08zm-1906.01 -216.82c28.78,-16.55 69.56,-29.05 110.65,-29.37 24.5,-0.19 49.15,3.92 71.34,14.07 10.18,4.65 21.59,11.41 33.88,21.13 38.63,30.49 86.11,90.24 132.65,206.55 1.78,4.5 17.44,46.13 18.36,108.08 0.25,18.34 -0.76,38.44 -3.84,59.87 -2.52,17.71 -6.49,36.4 -12.25,55.78 -8.05,27.12 -19.69,55.57 -36.03,84.66 -17.79,31.69 -41.15,64.08 -71.58,96.42 -41.09,43.67 -95.07,87.2 -165.68,128.41 -31.55,14.67 -314.26,147.9 -437.2,276.97 -1.47,1.53 -2.89,3.24 -4.16,4.94 -1.24,1.65 -97.63,127.61 -232.03,165.77 -42.25,12 -88.32,15.29 -136.33,3.32 -56.66,-14.17 -109.57,-49.97 -148.97,-100.81 -76.75,-99.06 -82.47,-174.89 -73.77,-221.07 0.56,-3.04 0.81,-3.8 0.87,-6.55 0.89,-6.14 9.9,-56.49 71.81,-122.84 114.53,-122.75 314.09,-201.2 461.33,-245.42 0.88,-0.25 1.71,-0.52 2.56,-0.81 3.53,-1.24 87.37,-31.44 174.94,-101.64 12.62,-10.12 24.65,-20.56 36.15,-31.34 27.16,-25.39 51.19,-52.51 71.97,-81.09 17.17,-23.69 32.13,-48.36 44.79,-73.97 26.22,-53.11 42.64,-110.17 48.49,-170 0.56,-5.85 11.57,-23.53 41.98,-41.05l0.06 -0.02z"/>
 </g>
</svg>
